<?xml version="1.0" encoding="UTF-8" standalone="no"?>
<!-- Created with Inkscape (http://www.inkscape.org/) -->

<svg
   xmlns:osb="http://www.openswatchbook.org/uri/2009/osb"
   xmlns:dc="http://purl.org/dc/elements/1.1/"
   xmlns:cc="http://creativecommons.org/ns#"
   xmlns:rdf="http://www.w3.org/1999/02/22-rdf-syntax-ns#"
   xmlns:svg="http://www.w3.org/2000/svg"
   xmlns="http://www.w3.org/2000/svg"
   xmlns:sodipodi="http://sodipodi.sourceforge.net/DTD/sodipodi-0.dtd"
   xmlns:inkscape="http://www.inkscape.org/namespaces/inkscape"
   width="98mm"
   height="98mm"
   viewBox="0 0 98 98"
   version="1.1"
   id="svg8"
   inkscape:version="0.92.3 (2405546, 2018-03-11)"
   sodipodi:docname="logo.svg"
   inkscape:export-filename="C:\Users\emins\Documents\familytree\design\logo\logo.png"
   inkscape:export-xdpi="96"
   inkscape:export-ydpi="96">
  <defs
     id="defs2">
    <marker
       inkscape:stockid="Arrow1Lstart"
       orient="auto"
       refY="0"
       refX="0"
       id="Arrow1Lstart"
       style="overflow:visible"
       inkscape:isstock="true">
      <path
         id="path6046"
         d="M 0,0 5,-5 -12.5,0 5,5 Z"
         style="fill:#fb0000;fill-opacity:1;fill-rule:evenodd;stroke:#fb0000;stroke-width:1.00000003pt;stroke-opacity:1"
         transform="matrix(0.8,0,0,0.8,10,0)"
         inkscape:connector-curvature="0" />
    </marker>
    <linearGradient
       id="linearGradient2307"
       osb:paint="solid">
      <stop
         style="stop-color:#000000;stop-opacity:1;"
         offset="0"
         id="stop2305" />
    </linearGradient>
    <linearGradient
       id="linearGradient2301"
       osb:paint="solid">
      <stop
         style="stop-color:#c30000;stop-opacity:1;"
         offset="0"
         id="stop2299" />
    </linearGradient>
  </defs>
  <sodipodi:namedview
     id="base"
     pagecolor="#ffffff"
     bordercolor="#666666"
     borderopacity="1.0"
     inkscape:pageopacity="0.0"
     inkscape:pageshadow="2"
     inkscape:zoom="1.4"
     inkscape:cx="265.3393"
     inkscape:cy="163.63929"
     inkscape:document-units="mm"
     inkscape:current-layer="layer1"
     showgrid="false"
     inkscape:window-width="1920"
     inkscape:window-height="1017"
     inkscape:window-x="1672"
     inkscape:window-y="-8"
     inkscape:window-maximized="1" />
  <metadata
     id="metadata5">
    <rdf:RDF>
      <cc:Work
         rdf:about="">
        <dc:format>image/svg+xml</dc:format>
        <dc:type
           rdf:resource="http://purl.org/dc/dcmitype/StillImage" />
        <dc:title />
      </cc:Work>
    </rdf:RDF>
  </metadata>
  <g
     inkscape:label="Layer 1"
     inkscape:groupmode="layer"
     id="layer1"
     transform="translate(-57,-5.9999999)">
    <ellipse
       style="fill:none;fill-opacity:1;stroke:#fb0000;stroke-width:2.99935055;stroke-linecap:butt;stroke-linejoin:round;stroke-miterlimit:11;stroke-dasharray:none;stroke-opacity:1"
       id="path839-9"
       cx="106"
       cy="55"
       rx="45.000328"
       ry="45.000324" />
    <text
       xml:space="preserve"
       style="font-style:normal;font-variant:normal;font-weight:normal;font-stretch:normal;font-size:10.58333302px;line-height:1.25;font-family:'Century Gothic';-inkscape-font-specification:'Century Gothic';letter-spacing:0px;word-spacing:0px;fill:#ff8080;fill-opacity:1;stroke:none;stroke-width:0.26458332"
       x="72.430038"
       y="57.793774"
       id="text819"><tspan
         sodipodi:role="line"
         id="tspan817"
         x="72.430038"
         y="57.793774"
         style="font-style:normal;font-variant:normal;font-weight:normal;font-stretch:normal;font-family:Muli;-inkscape-font-specification:'Muli, Normal';fill:#ff8080;fill-opacity:1;stroke-width:0.26458332;font-size:10.58333333px;text-anchor:start;text-align:start;writing-mode:lr;font-variant-ligatures:normal;font-variant-caps:normal;font-variant-numeric:normal;font-feature-settings:normal">alt soy üst soy</tspan></text>
    <circle
       style="fill:none;fill-opacity:1;stroke:#fb0000;stroke-width:0.97171909;stroke-linecap:butt;stroke-linejoin:round;stroke-miterlimit:11;stroke-dasharray:none;stroke-opacity:1"
       id="path839"
       cx="106"
       cy="55"
       r="41.514141" />
    <circle
       style="fill:none;fill-opacity:1;stroke:#fb0000;stroke-width:1.0013659;stroke-linecap:butt;stroke-linejoin:round;stroke-miterlimit:11;stroke-dasharray:none;stroke-opacity:1"
       id="path839-9-8"
       cx="106"
       cy="55"
       r="48.499317" />
    <g
       id="g6539"
       transform="matrix(0.08489183,0,0,0.08489183,89.519692,16.476133)"
       style="fill:#008080">
      <g
         id="g6480"
         style="fill:#008080">
        <circle
           id="circle6472"
           r="15.368"
           cy="233.16901"
           cx="112.809"
           style="fill:#008080" />
        <circle
           id="circle6474"
           r="15.368"
           cy="233.16901"
           cx="274.229"
           style="fill:#008080" />
        <path
           id="path6476"
           d="m 381.46418,226.647 c 0,-22.261 -16.136,-40.811 -37.324,-44.602 v -6.717 c 0,-86.127 -70.069,-156.196 -156.195,-156.196 -86.127,0 -156.196003,70.069 -156.196003,156.196 v 6.717 c -21.188,3.792 -37.3239995,22.342 -37.3239995,44.602 0,22.453 16.4139995,41.134 37.8709995,44.7 3.02,34.414 18.765,59.834 46.942,75.653 25.058003,14.068 60.615003,20.906 108.707003,20.906 48.091,0 83.649,-6.839 108.707,-20.906 28.176,-15.819 43.921,-41.238 46.941,-75.653 21.457,-3.565 37.871,-22.247 37.871,-44.7 z m -371.039003,0 c 0,-13.395 9.032,-24.713 21.323,-28.205 v 56.41 c -12.291,-3.491 -21.323,-14.809 -21.323,-28.205 z m 317.715003,32.11 c 0,35.135 -12.862,59.436 -39.321,74.291 -22.603,12.69 -55.599,18.858 -100.874,18.858 -45.275,0 -78.272,-6.168 -100.874003,-18.858 -26.46,-14.855 -39.322,-39.156 -39.322,-74.291 v -83.429 c 0,-63.309 42.185,-116.941 99.918003,-134.29 43.983,0.556 67.407,32.306 67.407,55.296 0,17.608 -14.325,31.934 -31.934,31.934 -13.204,0 -23.947,-10.743 -23.947,-23.947 0,-9.681 7.876,-17.558 17.558,-17.558 4.418,0 8,-3.582 8,-8 0,-4.418 -3.582,-8 -8,-8 -18.504,0 -33.558,15.054 -33.558,33.558 0,22.027 17.92,39.947 39.947,39.947 26.431,0 47.934,-21.503 47.934,-47.934 0,-16.605 -8.343,-34.47 -22.317,-47.79 -5.59,-5.328 -11.95,-9.807 -18.89,-13.387 76.42,1.034 138.273,63.51 138.273,140.171 z m 16,-3.904 v -56.41 c 12.292,3.492 21.324,14.81 21.324,28.205 0,13.395 -9.033,24.713 -21.324,28.205 z"
           inkscape:connector-curvature="0"
           style="fill:#008080" />
        <path
           id="path6478"
           d="m 224.459,255.203 c -17.059,17.061 -44.82,17.061 -61.879,0 -3.125,-3.124 -8.189,-3.124 -11.314,0 -3.124,3.124 -3.124,8.19 0,11.314 11.649,11.649 26.952,17.474 42.254,17.474 15.302,0 30.604,-5.825 42.254,-17.474 3.124,-3.124 3.124,-8.19 0,-11.314 -3.126,-3.124 -8.19,-3.124 -11.315,0 z"
           inkscape:connector-curvature="0"
           style="fill:#008080" />
      </g>
      <g
         id="g6482"
         style="fill:#008080" />
      <g
         id="g6484"
         style="fill:#008080" />
      <g
         id="g6486"
         style="fill:#008080" />
      <g
         id="g6488"
         style="fill:#008080" />
      <g
         id="g6490"
         style="fill:#008080" />
      <g
         id="g6492"
         style="fill:#008080" />
      <g
         id="g6494"
         style="fill:#008080" />
      <g
         id="g6496"
         style="fill:#008080" />
      <g
         id="g6498"
         style="fill:#008080" />
      <g
         id="g6500"
         style="fill:#008080" />
      <g
         id="g6502"
         style="fill:#008080" />
      <g
         id="g6504"
         style="fill:#008080" />
      <g
         id="g6506"
         style="fill:#008080" />
      <g
         id="g6508"
         style="fill:#008080" />
      <g
         id="g6510"
         style="fill:#008080" />
    </g>
    <g
       id="g6614"
       transform="matrix(0.07870476,0,0,0.07870476,88.918838,60.463312)"
       style="fill:#008080">
      <g
         id="g6553"
         style="fill:#008080">
        <path
           id="path6541"
           d="m 287.815,187.311 c -9.416,0 -18.268,3.667 -24.925,10.324 -3.124,3.125 -3.124,8.189 0.001,11.314 3.123,3.124 8.188,3.125 11.313,0 3.635,-3.635 8.469,-5.638 13.61,-5.638 5.141,0 9.975,2.002 13.611,5.638 1.562,1.562 3.608,2.343 5.656,2.343 2.048,0 4.095,-0.781 5.657,-2.343 3.124,-3.125 3.124,-8.189 -10e-4,-11.314 -6.656,-6.657 -15.507,-10.324 -24.922,-10.324 z"
           inkscape:connector-curvature="0"
           style="fill:#008080" />
        <path
           id="path6543"
           d="m 132.929,203.311 c 5.142,0 9.976,2.002 13.61,5.638 1.563,1.563 3.609,2.343 5.657,2.343 2.047,0 4.095,-0.781 5.656,-2.343 3.125,-3.125 3.125,-8.189 0.001,-11.314 -6.657,-6.658 -15.509,-10.324 -24.925,-10.324 -9.415,0 -18.267,3.667 -24.924,10.324 -3.125,3.125 -3.125,8.189 -0.001,11.314 3.124,3.125 8.189,3.125 11.313,0 3.638,-3.635 8.471,-5.638 13.613,-5.638 z"
           inkscape:connector-curvature="0"
           style="fill:#008080" />
        <path
           id="path6545"
           d="m 276.028,282.86 c -3.122,-3.123 -8.188,-3.124 -11.313,0 -5.951,5.952 -9.32,13.52 -10.117,21.305 -29.037,6.886 -59.358,6.96 -88.408,0.212 -0.775,-8.128 -4.313,-15.669 -10.16,-21.517 -3.125,-3.124 -8.189,-3.124 -11.314,0 -3.124,3.124 -3.124,8.189 0,11.313 3.636,3.636 5.639,8.47 5.639,13.611 0,5.141 -2.003,9.975 -5.638,13.61 -3.125,3.125 -3.125,8.189 -0.001,11.314 1.563,1.563 3.609,2.343 5.657,2.343 2.047,0 4.095,-0.781 5.656,-2.343 3.587,-3.587 6.297,-7.814 8.042,-12.419 15.086,3.387 30.474,5.097 45.868,5.097 15.67,0 31.339,-1.772 46.69,-5.28 1.708,4.598 4.397,8.912 8.087,12.602 1.563,1.563 3.609,2.343 5.657,2.343 2.047,0 4.095,-0.781 5.656,-2.343 3.125,-3.125 3.125,-8.189 10e-4,-11.314 -7.505,-7.505 -7.505,-19.717 0,-27.222 3.123,-3.122 3.123,-8.188 -0.002,-11.312 z"
           inkscape:connector-curvature="0"
           style="fill:#008080" />
        <circle
           id="circle6547"
           r="14"
           cy="246.494"
           cx="132.929"
           style="fill:#008080" />
        <circle
           id="circle6549"
           r="14"
           cy="246.494"
           cx="287.814"
           style="fill:#008080" />
        <path
           id="path6551"
           d="m 409.798,214.164 c 0,-11.093 -4.861,-21.401 -12.86,-28.48 7.495,-7.024 11.931,-16.928 11.931,-27.689 0,-11.319 -4.95,-21.781 -13.326,-28.904 2.822,-5.395 4.326,-11.425 4.326,-17.596 0,-16.228 -10.147,-30.137 -24.574,-35.565 1.37,-3.955 2.074,-8.135 2.074,-12.425 0,-20.953 -17.047,-38 -38,-38 -1.872,0 -3.729,0.135 -5.56,0.404 -6.522,-12.151 -19.176,-19.904 -33.44,-19.904 -7.359,0 -14.355,2.058 -20.377,5.91 -7.092,-7.499 -17.05,-11.91 -27.623,-11.91 -7.232,0 -14.231,2.05 -20.261,5.864 -6.031,-3.814 -13.036,-5.864 -20.279,-5.864 -0.499,0 -0.99,0.009 -1.479,0.03 -7.734,-0.327 -15.315,1.762 -21.757,5.833 -6.024,-3.813 -13.024,-5.863 -20.264,-5.863 -10.579,0 -20.544,4.42 -27.637,11.934 -6.044,-3.831 -13.122,-5.934 -20.363,-5.934 -14.26,0 -26.909,7.752 -33.432,19.905 -1.832,-0.27 -3.688,-0.405 -5.559,-0.405 -20.953,0 -38,17.047 -38,38 0,4.293 0.703,8.475 2.071,12.426 -14.425,5.428 -24.571,19.336 -24.571,35.564 0,6.17 1.504,12.2 4.326,17.594 -8.377,7.121 -13.326,17.583 -13.326,28.906 0,10.763 4.435,20.667 11.929,27.689 -7.998,7.079 -12.858,17.386 -12.858,28.48 0,11.372 5.104,22.016 13.653,29.161 -1.184,3.876 -1.825,7.986 -1.825,12.244 0,20.423 14.655,37.479 34,41.227 v 33.75 c 0,17.505 7.192,34.695 19.733,47.162 12.331,12.258 28.472,18.995 45.49,18.995 0.127,0 0.256,0 0.382,-10e-4 11.261,-0.066 22.041,-2.948 31.653,-8.406 11.548,19.959 32.766,32.411 56.378,32.411 23.612,0 44.829,-12.452 56.377,-32.411 9.612,5.458 20.393,8.34 31.653,8.406 0.127,0 0.253,10e-4 0.381,10e-4 17.018,0 33.161,-6.737 45.492,-18.996 12.54,-12.466 19.732,-29.656 19.732,-47.161 v -33.75 c 19.345,-3.747 34,-20.804 34,-41.227 0,-4.271 -0.645,-8.393 -1.835,-12.279 8.531,-7.143 13.625,-17.775 13.625,-29.126 z M 38.736,255.569 c 0,-12.241 8.505,-22.527 19.916,-25.274 -1.183,16.656 -1.816,33.344 -1.893,50.017 -10.446,-3.376 -18.023,-13.189 -18.023,-24.743 z m 309.272,74.977 c 0,13.276 -5.472,26.33 -15.013,35.814 -9.312,9.256 -21.451,14.343 -34.215,14.343 -0.094,0 -0.189,0 -0.284,-10e-4 -10.977,-0.064 -21.351,-3.677 -29.998,-10.447 -1.987,-1.555 -4.591,-2.08 -7.024,-1.422 -2.435,0.66 -4.415,2.429 -5.345,4.774 -7.487,18.892 -25.447,31.1 -45.757,31.1 -20.31,0 -38.271,-12.208 -45.758,-31.1 -0.93,-2.345 -2.91,-4.114 -5.345,-4.774 -0.69,-0.187 -1.394,-0.278 -2.093,-0.278 -1.768,0 -3.508,0.586 -4.932,1.701 -8.647,6.77 -19.021,10.382 -29.999,10.447 -12.825,0.063 -25.119,-5.017 -34.498,-14.341 -9.541,-9.485 -15.013,-22.539 -15.013,-35.815 v -46.758 c 0,-49.588 5.021,-99.344 14.928,-147.923 6.839,11.522 19.157,18.589 32.669,18.589 7.236,0 14.313,-2.103 20.358,-5.934 7.093,7.513 17.06,11.933 27.64,11.933 7.233,0 14.232,-2.05 20.262,-5.863 6.029,3.813 13.036,5.863 20.282,5.863 0.495,0 0.987,-0.012 1.478,-0.031 0.489,0.019 0.981,0.031 1.477,0.031 7.245,0 14.252,-2.05 20.282,-5.864 6.028,3.813 13.027,5.864 20.261,5.864 10.581,0 20.547,-4.419 27.641,-11.933 6.045,3.83 13.121,5.934 20.357,5.934 13.515,0 25.835,-7.069 32.672,-18.594 9.932,48.647 14.967,98.468 14.967,148.115 z m 15.977,-50.234 c -0.082,-16.675 -0.719,-33.364 -1.906,-50.02 11.417,2.742 19.929,13.031 19.929,25.277 0,11.554 -7.578,21.368 -18.023,24.743 z m -3.255,-66.471 c -2.615,-28.073 -6.783,-56.006 -12.502,-83.564 -1.247,-6.002 -6.151,-10.653 -12.191,-11.572 -0.172,-0.027 -0.343,-0.055 -0.514,-0.084 -6.31,-1.112 -12.578,2.069 -15.599,7.915 -3.798,7.352 -11.291,11.918 -19.555,11.918 -6.102,0 -11.777,-2.448 -15.981,-6.894 -1.75,-1.85 -4.274,-2.757 -6.803,-2.441 -2.526,0.315 -4.753,1.814 -5.994,4.038 -3.892,6.968 -11.257,11.297 -19.22,11.297 -5.506,0 -10.78,-2.058 -14.852,-5.793 -3.062,-2.809 -7.762,-2.808 -10.819,0.001 -4.068,3.735 -9.351,5.792 -14.872,5.792 -0.368,0 -0.732,-0.012 -1.096,-0.029 -0.255,-0.012 -0.51,-0.012 -0.765,0 -0.362,0.017 -0.727,0.029 -1.094,0.029 -5.522,0 -10.804,-2.057 -14.871,-5.792 -3.06,-2.809 -7.759,-2.81 -10.82,-0.001 -4.071,3.736 -9.346,5.793 -14.853,5.793 -7.963,0 -15.327,-4.329 -19.219,-11.297 -1.241,-2.223 -3.467,-3.723 -5.994,-4.038 -2.521,-0.316 -5.053,0.591 -6.803,2.441 -4.204,4.446 -9.88,6.894 -15.982,6.894 -8.263,0 -15.756,-4.567 -19.554,-11.917 -3.021,-5.846 -9.288,-9.029 -15.611,-7.914 -0.161,0.029 -0.324,0.055 -0.486,0.08 -6.058,0.922 -10.963,5.578 -12.203,11.572 l -0.038,0.184 c -5.693,27.499 -9.841,55.372 -12.444,83.385 -11.04,1.246 -20.797,6.783 -27.554,14.906 -3.508,-3.966 -5.533,-9.133 -5.533,-14.586 0,-9.281 5.873,-17.609 14.615,-20.724 3.141,-1.119 5.258,-4.069 5.313,-7.403 0.056,-3.333 -1.962,-6.352 -5.063,-7.575 -8.466,-3.339 -13.936,-11.373 -13.936,-20.468 0,-8.318 4.62,-15.836 12.058,-19.62 2.2,-1.119 3.76,-3.191 4.229,-5.614 0.468,-2.423 -0.21,-4.927 -1.835,-6.784 -3.516,-4.018 -5.451,-9.161 -5.451,-14.482 0,-11.751 9.188,-21.401 20.918,-21.969 2.961,-0.144 5.601,-1.914 6.857,-4.599 1.258,-2.686 0.926,-5.846 -0.86,-8.212 -2.889,-3.826 -4.415,-8.394 -4.415,-13.21 0,-12.131 9.869,-22 22,-22 2.589,0 5.126,0.446 7.541,1.326 2.064,0.754 4.351,0.623 6.317,-0.361 1.967,-0.984 3.442,-2.734 4.079,-4.838 2.783,-9.201 11.44,-15.627 21.053,-15.627 6.107,0 11.784,2.448 15.984,6.894 1.751,1.852 4.275,2.761 6.805,2.444 2.527,-0.315 4.755,-1.815 5.996,-4.039 3.891,-6.97 11.253,-11.299 19.215,-11.299 5.513,0 10.784,2.056 14.846,5.79 3.058,2.812 7.761,2.814 10.822,0.005 4.073,-3.737 9.358,-5.795 14.882,-5.795 0.328,0 0.657,0.005 0.985,0.025 0.324,0.02 0.647,0.02 0.972,0 0.328,-0.02 0.657,-0.025 0.993,-0.025 5.518,0 10.8,2.058 14.871,5.794 3.061,2.808 7.758,2.808 10.818,0 4.071,-3.737 9.346,-5.794 14.851,-5.794 7.968,0 15.334,4.33 19.225,11.299 1.241,2.224 3.469,3.724 5.996,4.039 2.533,0.317 5.056,-0.593 6.805,-2.444 4.2,-4.446 9.873,-6.894 15.975,-6.894 9.771,0 18.235,6.28 21.063,15.626 0.637,2.106 2.113,3.857 4.082,4.841 1.97,0.984 4.255,1.112 6.322,0.357 2.402,-0.878 4.937,-1.324 7.533,-1.324 12.131,0 22,9.869 22,22 0,4.807 -1.528,9.377 -4.421,13.218 -1.782,2.367 -2.11,5.526 -0.853,8.209 1.258,2.683 3.896,4.451 6.855,4.594 11.729,0.569 20.918,10.219 20.918,21.969 0,5.322 -1.936,10.465 -5.45,14.482 -1.625,1.857 -2.302,4.36 -1.835,6.783 0.468,2.423 2.026,4.495 4.226,5.614 7.438,3.788 12.06,11.307 12.06,19.621 0,9.092 -5.471,17.126 -13.938,20.468 -3.101,1.224 -5.117,4.242 -5.062,7.575 0.055,3.333 2.172,6.282 5.312,7.401 8.743,3.118 14.617,11.446 14.617,20.725 0,5.44 -2.021,10.598 -5.519,14.559 -6.76,-8.112 -16.515,-13.64 -27.549,-14.881 z"
           inkscape:connector-curvature="0"
           style="fill:#008080" />
      </g>
      <g
         id="g6555"
         style="fill:#008080" />
      <g
         id="g6557"
         style="fill:#008080" />
      <g
         id="g6559"
         style="fill:#008080" />
      <g
         id="g6561"
         style="fill:#008080" />
      <g
         id="g6563"
         style="fill:#008080" />
      <g
         id="g6565"
         style="fill:#008080" />
      <g
         id="g6567"
         style="fill:#008080" />
      <g
         id="g6569"
         style="fill:#008080" />
      <g
         id="g6571"
         style="fill:#008080" />
      <g
         id="g6573"
         style="fill:#008080" />
      <g
         id="g6575"
         style="fill:#008080" />
      <g
         id="g6577"
         style="fill:#008080" />
      <g
         id="g6579"
         style="fill:#008080" />
      <g
         id="g6581"
         style="fill:#008080" />
      <g
         id="g6583"
         style="fill:#008080" />
    </g>
  </g>
</svg>
